<svg width="29" height="29" viewBox="0 0 29 29" fill="none" xmlns="http://www.w3.org/2000/svg">
<path opacity="0.8" fill-rule="evenodd" clip-rule="evenodd" d="M14.5 27C21.4036 27 27 21.4036 27 14.5C27 7.59644 21.4036 2 14.5 2C7.59644 2 2 7.59644 2 14.5C2 21.4036 7.59644 27 14.5 27ZM29 14.5C29 22.5081 22.5081 29 14.5 29C6.49187 29 0 22.5081 0 14.5C0 6.49187 6.49187 0 14.5 0C22.5081 0 29 6.49187 29 14.5Z" fill="white"/>
<path opacity="0.8" fill-rule="evenodd" clip-rule="evenodd" d="M14.7105 8.77369C13.6263 8.77369 12.7473 9.65263 12.7473 10.7368C12.7473 11.8211 13.6263 12.7 14.7105 12.7C15.7947 12.7 16.6737 11.8211 16.6737 10.7368C16.6737 9.65263 15.7947 8.77369 14.7105 8.77369ZM11.1473 10.7368C11.1473 8.76897 12.7426 7.17369 14.7105 7.17369C16.6784 7.17369 18.2737 8.76897 18.2737 10.7368C18.2737 12.7047 16.6784 14.3 14.7105 14.3C12.7426 14.3 11.1473 12.7047 11.1473 10.7368Z" fill="white"/>
<path opacity="0.8" fill-rule="evenodd" clip-rule="evenodd" d="M7.9895 20.2105C7.9895 16.9953 11.1744 14.6737 14.7106 14.6737C18.2467 14.6737 21.4316 16.9953 21.4316 20.2105C21.4316 20.6524 21.0734 21.0105 20.6316 21.0105C20.1898 21.0105 19.8316 20.6524 19.8316 20.2105C19.8316 18.1936 17.7146 16.2737 14.7106 16.2737C11.7065 16.2737 9.5895 18.1936 9.5895 20.2105C9.5895 20.6524 9.23133 21.0105 8.7895 21.0105C8.34767 21.0105 7.9895 20.6524 7.9895 20.2105Z" fill="white"/>
</svg>
